<svg width="85" height="11" viewBox="0 0 85 11" fill="none" xmlns="http://www.w3.org/2000/svg">
<path d="M11.0071 8.38223V0.165039H14.4402C15.5357 0.165039 16.3679 0.307515 16.9386 0.590866C17.5076 0.874218 17.7929 1.38169 17.7929 2.11328C17.7929 3.17144 17.2286 3.74455 16.1016 3.8326V4.38969C17.6274 4.41211 18.3903 5.02844 18.3903 6.23868C18.3903 7.66825 17.2727 8.38223 15.0376 8.38223H11.0071ZM12.9743 3.40677H14.4418C14.9793 3.40677 15.3434 3.35554 15.5373 3.25149C15.7311 3.14743 15.8273 2.9057 15.8273 2.5231C15.8273 2.17411 15.7248 1.94519 15.5215 1.83633C15.3166 1.72747 14.9572 1.67304 14.4418 1.67304H12.9743V3.40677ZM12.9743 6.87582H15.0376C15.542 6.87582 15.8998 6.81019 16.1094 6.67892C16.3191 6.54765 16.4231 6.29151 16.4231 5.90891C16.4231 5.5167 16.3175 5.25095 16.1094 5.11488C15.8998 4.97881 15.542 4.90997 15.0376 4.90997H12.9743V6.87582Z" fill="white"/>
<path d="M19.5015 6.12313C19.5015 5.41395 19.7348 4.85206 20.2029 4.43743C20.6711 4.02281 21.4418 3.75067 22.5153 3.6194L25.3195 3.27521C25.2879 2.24906 24.6637 1.73679 23.45 1.73679C22.881 1.73679 22.427 1.86486 22.0881 2.121C21.7492 2.37713 21.5806 2.76294 21.5806 3.27521H19.615C19.615 2.30349 19.9696 1.51587 20.6789 0.91075C21.3883 0.305627 22.3119 0.00146484 23.4516 0.00146484C24.6227 0.00146484 25.5732 0.326438 26.3046 0.974784C27.036 1.62473 27.4001 2.55483 27.4001 3.76507V6.54736H28.576V8.38034H26.932C26.5773 8.38034 26.3062 8.28269 26.1186 8.08578C25.931 7.88888 25.8365 7.61673 25.8365 7.26775V6.9892L26.158 6.0559H25.6111C25.2249 7.71438 24.1388 8.54363 22.3561 8.54363C21.776 8.54363 21.2842 8.46198 20.8807 8.2987C20.4772 8.13541 20.1856 7.91609 20.0027 7.64395C19.8199 7.3718 19.6906 7.11246 19.6165 6.86593C19.5393 6.6226 19.5015 6.37447 19.5015 6.12313ZM21.5806 5.76294C21.5806 6.07991 21.6846 6.31684 21.8942 6.47532C22.1039 6.63381 22.3797 6.71225 22.7233 6.71225C23.5083 6.71225 24.1357 6.51374 24.6086 6.11513C25.0814 5.71652 25.3179 5.19624 25.3179 4.5527L22.8857 4.86326C22.4239 4.91769 22.0897 5.00734 21.8864 5.13381C21.6814 5.25867 21.5806 5.46838 21.5806 5.76294Z" fill="white"/>
<path d="M34.3923 4.27415C34.3923 2.98706 34.7848 1.95291 35.5682 1.17169C36.3516 0.392073 37.3951 0.00146484 38.6955 0.00146484C39.7705 0.00146484 40.7068 0.299224 41.5076 0.893141C42.3083 1.48866 42.7465 2.34191 42.8206 3.45451H40.7415C40.6659 2.93103 40.4468 2.52921 40.0811 2.25067C39.7154 1.97212 39.2535 1.83284 38.6955 1.83284C37.9752 1.83284 37.4251 2.05376 37.0436 2.4956C36.6622 2.93743 36.4714 3.52975 36.4714 4.27094C36.4714 5.01374 36.6622 5.60446 37.0436 6.04629C37.4251 6.48813 37.9752 6.70905 38.6955 6.70905C39.2535 6.70905 39.717 6.56977 40.0811 6.29122C40.4468 6.01267 40.6659 5.61246 40.7415 5.08898H42.8206C42.745 6.20157 42.3068 7.05643 41.5076 7.65035C40.7068 8.24587 39.769 8.54202 38.6955 8.54202C37.3951 8.54202 36.3532 8.15462 35.5682 7.3798C34.7848 6.60819 34.3923 5.57244 34.3923 4.27415Z" fill="white"/>
<path d="M51.3151 0.165039V8.38223H49.2518V1.99802H46.9315C46.9205 2.72961 46.8969 3.35714 46.859 3.88062C46.8212 4.4041 46.7534 4.92598 46.6573 5.44306C46.5611 5.96173 46.4287 6.38756 46.2616 6.72054C46.0945 7.05352 45.8802 7.35288 45.6169 7.62022C45.3537 7.88756 45.0306 8.08127 44.6491 8.20133C44.2677 8.32139 43.82 8.38063 43.303 8.38063V6.54925C44.0013 6.54925 44.4363 6.11862 44.6081 5.25576C44.7799 4.3945 44.8651 2.69759 44.8651 0.165039H51.3151Z" fill="white"/>
<path d="M53.8623 7.39915C53.0348 6.63554 52.6218 5.59339 52.6218 4.27268C52.6218 2.95198 53.0348 1.90982 53.8623 1.14621C54.6899 0.382604 55.7586 0 57.07 0C58.3705 0 59.4344 0.382604 60.2604 1.14621C61.0879 1.90982 61.5009 2.95198 61.5009 4.27268C61.5009 5.59339 61.0864 6.63554 60.2604 7.39915C59.4329 8.16276 58.3689 8.54536 57.07 8.54536C55.757 8.54536 54.6883 8.16436 53.8623 7.39915ZM55.3283 2.48933C54.909 2.92636 54.6993 3.52028 54.6993 4.27268C54.6993 5.02508 54.909 5.6206 55.3283 6.05603C55.7476 6.49307 56.3276 6.71078 57.0685 6.71078C57.8093 6.71078 58.3909 6.49307 58.8087 6.05603C59.2279 5.6206 59.4376 5.02508 59.4376 4.27268C59.4376 3.52028 59.2279 2.92476 58.8087 2.48933C58.3894 2.0523 57.8093 1.83458 57.0685 1.83458C56.3276 1.83458 55.7476 2.0523 55.3283 2.48933Z" fill="white"/>
<path d="M62.7258 8.38223V0.165039H66.1589C67.2544 0.165039 68.0867 0.307515 68.6573 0.590866C69.2263 0.874218 69.5116 1.38169 69.5116 2.11328C69.5116 3.17144 68.9473 3.74455 67.8203 3.8326V4.38969C69.3461 4.41211 70.109 5.02844 70.109 6.23868C70.109 7.66825 68.9915 8.38223 66.7563 8.38223H62.7258ZM64.693 3.40677H66.1605C66.698 3.40677 67.0621 3.35554 67.256 3.25149C67.4499 3.14743 67.546 2.9057 67.546 2.5231C67.546 2.17411 67.4436 1.94519 67.2403 1.83633C67.0353 1.72747 66.6759 1.67304 66.1605 1.67304H64.693V3.40677ZM64.693 6.87582H66.7563C67.2607 6.87582 67.6186 6.81019 67.8282 6.67892C68.0378 6.54765 68.1419 6.29151 68.1419 5.90891C68.1419 5.5167 68.0363 5.25095 67.8282 5.11488C67.6186 4.97881 67.2607 4.90997 66.7563 4.90997H64.693V6.87582Z" fill="white"/>
<path d="M71.2673 6.12313C71.2673 5.41395 71.5006 4.85206 71.9688 4.43743C72.4369 4.02281 73.2077 3.75067 74.2811 3.6194L77.0853 3.27521C77.0538 2.24906 76.4296 1.73679 75.2159 1.73679C74.6468 1.73679 74.1929 1.86486 73.854 2.121C73.5151 2.37713 73.3464 2.76294 73.3464 3.27521H71.3808C71.3808 2.30349 71.7355 1.51587 72.4448 0.91075C73.1541 0.305627 74.0778 0.00146484 75.2175 0.00146484C76.3886 0.00146484 77.3391 0.326438 78.0705 0.974784C78.8003 1.62473 79.166 2.55483 79.166 3.76507V6.54736H80.3419V8.38034H78.6978C78.3432 8.38034 78.0721 8.28269 77.8845 8.08578C77.6953 7.88888 77.6023 7.61673 77.6023 7.26775V6.9892L77.9239 6.0559H77.3754C76.9892 7.71438 75.9031 8.54363 74.1204 8.54363C73.5403 8.54363 73.0485 8.46198 72.6466 8.2987C72.243 8.13541 71.9499 7.91609 71.7686 7.64395C71.5873 7.3718 71.4565 7.11246 71.3824 6.86593C71.3052 6.6226 71.2673 6.37447 71.2673 6.12313ZM73.3464 5.76294C73.3464 6.07991 73.452 6.31684 73.6601 6.47532C73.8697 6.63381 74.1456 6.71225 74.4892 6.71225C75.2742 6.71225 75.9015 6.51374 76.3744 6.11513C76.8473 5.71652 77.0837 5.19624 77.0837 4.5527L74.65 4.86326C74.1881 4.91769 73.854 5.00734 73.6506 5.13381C73.4489 5.25867 73.3464 5.46838 73.3464 5.76294Z" fill="white"/>
<path d="M83.3874 3.25956C82.9145 3.25956 82.5299 3.10427 82.2352 2.79371C81.9404 2.48314 81.7922 2.09253 81.7922 1.62348C81.7922 1.16564 81.9404 0.779833 82.2352 0.469267C82.5299 0.158701 82.9145 0.00341797 83.3874 0.00341797C83.8493 0.00341797 84.2339 0.158701 84.5397 0.469267C84.8455 0.779833 84.9999 1.16404 84.9999 1.62348C84.9999 2.08293 84.847 2.46873 84.5397 2.7857C84.2339 3.10107 83.8493 3.25956 83.3874 3.25956ZM83.3874 8.54558C82.9145 8.54558 82.5299 8.3903 82.2352 8.07973C81.9404 7.76917 81.7922 7.37856 81.7922 6.90951C81.7922 6.45166 81.9404 6.06906 82.2352 5.76329C82.5299 5.45753 82.9145 5.30545 83.3874 5.30545C83.8493 5.30545 84.2339 5.45753 84.5397 5.76329C84.8455 6.06906 84.9999 6.45006 84.9999 6.90951C84.9999 7.37856 84.847 7.76917 84.5397 8.07973C84.2339 8.3903 83.8493 8.54558 83.3874 8.54558Z" fill="white"/>
<path d="M9.55688 6.54949V10.6253H7.47779V8.38247H2.07909V10.6253H0V6.54949H1.06398C1.4943 5.84031 1.80009 4.99987 1.98294 4.02815C2.16579 3.05643 2.25721 1.76934 2.25721 0.165283H8.49448V6.54949H9.55688ZM2.57404 6.54949H6.41382V1.99826H4.28586C4.20547 3.45984 3.94696 4.88781 3.49458 5.87233L2.57404 6.1941V6.54949Z" fill="white"/>
</svg>
