<svg width="180" height="44" viewBox="0 0 180 44" fill="none" xmlns="http://www.w3.org/2000/svg">
<g clip-path="url(#clip0_71_521)">
<path d="M165.133 0H14.8669C9.98828 0 6.48886 1.19775 3.85865 3.77043C1.22844 6.34311 0 9.7617 0 14.5278V29.4747C0 34.2408 1.22593 37.6594 3.85865 40.2321C6.49137 42.8047 9.98828 44 14.8669 44H165.133C170.012 44 173.511 42.8022 176.144 40.2296C178.777 37.6569 180 34.2408 180 29.4747V14.5278C180 9.7592 178.774 6.34311 176.141 3.77043C173.509 1.19775 170.012 0 165.133 0Z" fill="#0020D0"/>
<path d="M60.9421 15.2839L54.1945 29.2153H60.623L61.4897 27.2864H68.9734L69.8577 29.2153H76.9092L69.727 15.2839H60.9421ZM63.0774 23.768L65.1826 19.1617L67.3254 23.7655L63.0774 23.768Z" fill="white"/>
<path d="M56.4931 15.2839H38.991V19.6458H44.5579V29.2153H50.9287V19.6458H56.4931V15.2839Z" fill="white"/>
<path d="M74.4574 19.6458H80.0243V29.2153H86.3951V19.6458H91.962V15.2839H74.4574V19.6458Z" fill="white"/>
<path d="M27.6863 14.7722H26.9905C17.7332 14.7722 16.5274 18.892 16.5274 21.6818V22.2432C16.5274 25.0155 17.8287 29.2301 26.9905 29.2301H27.6863C36.622 29.2301 37.848 25.3174 37.848 23.406V23.0118H29.485L30.5904 25.2825L28.1486 24.1122L27.2568 26.6549L26.3624 24.1122L23.9206 25.2825L25.0988 22.8571L22.539 21.9712L25.0988 21.0829L23.9206 18.6574L26.3624 19.8302L27.2568 17.285L28.1486 19.8302L30.5904 18.6574L29.5403 20.8209H37.848V20.5713C37.848 18.63 36.622 14.7722 27.6863 14.7722Z" fill="white"/>
<path d="M157.413 15.2839L155.228 19.2091L153.097 15.2839H148.272V23.1966H151.824V18.8248L154.243 23.1966H156.009L158.441 18.8248V23.1966H162.026V15.2839H157.413Z" fill="white"/>
<path d="M162.026 25.4324H136.522V29.2153H162.026V25.4324Z" fill="white"/>
<path d="M141.323 23.3437H141.858C146.506 23.3437 147.385 21.864 147.412 20.6438C147.412 20.6438 147.412 20.4691 147.412 20.4567C147.412 19.4136 146.576 18.4205 144.742 18.383L146.96 17.5222V15.2764H136.522V17.617H143.808L140.135 18.7149V20.0749H142.647C143.29 20.0749 143.494 20.2645 143.494 20.5515C143.494 20.8484 143.267 21.1878 141.567 21.1878C139.758 21.1878 139.693 20.4018 139.66 20.2321H135.97V20.3269C135.97 21.355 136.527 23.3437 141.323 23.3437Z" fill="white"/>
<path d="M106.12 21.315L99.7647 29.2277H93.9868V15.2214H99.7647V23.1241L106.12 15.2214H111.898V29.2402H106.12V21.315Z" fill="white"/>
<path d="M119.955 23.2065V29.2352H114.177V15.2214H119.955V20.4292L125.306 15.2214H131.908L125.356 21.5022L132.453 29.2377H125.243L119.955 23.2065Z" fill="white"/>
</g>
<defs>
<clipPath id="clip0_71_521">
<rect width="180" height="44" fill="white"/>
</clipPath>
</defs>
</svg>
