<svg width="428" height="432" viewBox="0 0 428 432" fill="none" xmlns="http://www.w3.org/2000/svg">
<path opacity="0.5" fill-rule="evenodd" clip-rule="evenodd" d="M-155 125.656V431.587H441.726L483.192 401.664L396.319 338.976L452.488 247.954L348.136 223.142L365.05 117.645L259.106 134.487L234.189 30.5749L142.783 86.5072L79.829 0L16.8752 86.5072L-74.5314 30.5749L-99.4483 134.487L-155 125.656Z" fill="white"/>
<g style="mix-blend-mode:multiply">
<path fill-rule="evenodd" clip-rule="evenodd" d="M-155 125.656V431.587H441.726L483.192 401.664L396.319 338.976L452.488 247.954L348.136 223.142L365.05 117.645L259.106 134.487L234.189 30.5749L142.783 86.5072L79.829 0L16.8752 86.5072L-74.5314 30.5749L-99.4483 134.487L-155 125.656Z" fill="#0020D0"/>
</g>
</svg>
