<svg width="45" height="36" viewBox="0 0 45 36" fill="none" xmlns="http://www.w3.org/2000/svg">
<g clip-path="url(#clip0_124_1018)">
<path d="M24.6164 10.5786L22.5042 6.31445L20.3842 10.5786L15.6494 11.2569L19.0729 14.5778L18.2641 19.2551L22.5042 17.049L26.7365 19.2551L25.9277 14.5778L29.3512 11.2569L24.6164 10.5786Z" fill="white"/>
<path d="M35.3341 18.5067C36.1347 16.4369 36.4159 14.2047 36.1536 12.0029C35.8913 9.80105 35.0933 7.69563 33.8285 5.86832C32.5637 4.04101 30.87 2.54668 28.8936 1.51427C26.9173 0.481862 24.7175 -0.0576172 22.4843 -0.0576172C20.251 -0.0576172 18.0513 0.481862 16.075 1.51427C14.0986 2.54668 12.4049 4.04101 11.1401 5.86832C9.87528 7.69563 9.07728 9.80105 8.81496 12.0029C8.55265 14.2047 8.8339 16.4369 9.63444 18.5067L0 28.4617L6.87838 29.2412L8.27604 36.039L17.2745 26.2867C18.9359 26.971 20.717 27.3232 22.5157 27.3232C24.3144 27.3232 26.0955 26.971 27.7569 26.2867L36.724 36L38.1216 29.2023L45 28.4227L35.3341 18.5067ZM11.8801 13.6579C11.8801 11.5715 12.5034 9.53191 13.6711 7.79723C14.8388 6.06254 16.4985 4.71066 18.4402 3.91258C20.3819 3.1145 22.5184 2.90608 24.5794 3.31369C26.6404 3.72129 28.5334 4.72661 30.0189 6.20248C31.5043 7.67834 32.5155 9.55844 32.9245 11.605C33.3336 13.6515 33.1221 15.7724 32.3168 17.6996C31.5115 19.6268 30.1486 21.2735 28.4005 22.4315C26.6524 23.5896 24.5976 24.2068 22.4961 24.2053C19.6805 24.2012 16.9815 23.0883 14.9913 21.111C13.0011 19.1336 11.8822 16.4532 11.8801 13.6579Z" fill="white"/>
</g>
<defs>
<clipPath id="clip0_124_1018">
<rect width="45" height="36" fill="white"/>
</clipPath>
</defs>
</svg>
