<svg width="50" height="30" viewBox="0 0 50 30" fill="none" xmlns="http://www.w3.org/2000/svg">
<g clip-path="url(#clip0_124_1042)">
<path d="M15.4251 21.8785L11.7646 21.5498L13.0354 28.7652C13.2592 30.0159 13.1313 30.0159 13.9306 30.0159H14.9536C15.6249 30.0159 15.7528 30.0159 15.6729 28.7652L15.4251 21.8785Z" fill="white"/>
<path d="M45.4843 12.5468C38.4831 4.22501 36.413 0 28.9402 0H10.3421C8.15217 0 6.17807 1.02619 6.17807 4.00855C6.17807 8.16141 6.23402 11.2881 4.23593 13.9337C1.83824 13.9337 0.575448 15.008 0 17.4372C6.82545 16.9482 7.90441 12.4987 7.90441 4.00855C7.90441 2.95831 9.14322 2.95831 9.14322 4.00855V11.2239C9.14322 16.0342 6.25799 16.9963 6.15409 19.1769L5.7305 28.7974C5.68254 30.0481 5.68254 30.0481 6.48178 30.0481H7.57673C8.37596 30.0481 8.37596 30.0481 8.57577 28.7974L10.3181 19.9786C11.1815 19.4806 12.0985 19.0825 13.0515 18.7921C13.439 19.299 13.9392 19.708 14.5124 19.9864C15.0855 20.2648 15.7156 20.4049 16.3523 20.3955C17.1253 20.4196 17.8882 20.2141 18.5451 19.8048C19.2021 19.3954 19.7238 18.8004 20.0448 18.0946C23.5374 18.2309 27.2379 18.8081 31.3059 18.8001H33.1841L34.4709 28.2202C34.7187 30.0481 35.0464 30.0481 35.6698 30.0481H36.6608C37.3402 30.0481 37.3641 30.1523 37.2602 28.1962L36.7647 19.1288C40.8648 21.0369 41.9677 29.6553 46.6113 26.8012L46.5553 17.1807C48.8251 17.4131 49.6004 17.7819 50 16.4351C48.4255 15.922 47.5064 15.3768 45.4843 12.5468ZM44.6851 20.7483C44.5085 20.9235 44.2701 21.0218 44.0217 21.0218C43.7733 21.0218 43.5349 20.9235 43.3584 20.7483C43.271 20.6577 43.2028 20.5502 43.1581 20.4323C43.1134 20.3145 43.093 20.1888 43.0983 20.0628C43.1035 19.9368 43.1342 19.8132 43.1885 19.6995C43.2429 19.5858 43.3197 19.4844 43.4143 19.4014C43.5026 19.3149 43.6075 19.2473 43.7226 19.2027C43.8377 19.1581 43.9606 19.1375 44.084 19.142C44.2073 19.1465 44.3284 19.176 44.44 19.2289C44.5516 19.2818 44.6513 19.3568 44.7331 19.4495C44.8213 19.5342 44.8908 19.6366 44.9371 19.75C44.9833 19.8634 45.0053 19.9853 45.0015 20.1078C44.9977 20.2303 44.9683 20.3506 44.9152 20.4609C44.8621 20.5713 44.7864 20.6692 44.6931 20.7483H44.6851Z" fill="white"/>
<path d="M27.2696 28.7495C27.1737 30.0002 27.1737 30.0002 27.9729 30.0002H28.948C29.7472 30.0002 29.7472 30.0002 29.939 28.7495L31.3776 20.043H27.9729L27.2696 28.7495Z" fill="white"/>
</g>
<defs>
<clipPath id="clip0_124_1042">
<rect width="50" height="30" fill="white"/>
</clipPath>
</defs>
</svg>
