<svg width="38" height="33" viewBox="0 0 38 33" fill="none" xmlns="http://www.w3.org/2000/svg">
<g clip-path="url(#clip0_124_1048)">
<path d="M38 13.7692H36.2054V2.85371H28.1935L26.8636 0.0951237L24.8366 0L19.709 2.85371H0V32.9762H36.2054V25.5249H38V13.7692ZM33.0006 6.0245V8.3154H30.9176L29.7879 6.0245H33.0006ZM33.0006 29.8054H3.20472V6.0245H13.9966L9.87055 8.3154H6.40945V11.4862H33.0006V13.7692H22.0004V25.5486H33.0006V29.8054ZM34.7953 22.3541H25.1811V16.9399H34.7953V22.3541Z" fill="white"/>
<path d="M28.7947 21.2128C29.1117 21.2128 29.4215 21.1198 29.685 20.9456C29.9485 20.7714 30.1539 20.5238 30.2751 20.2341C30.3964 19.9444 30.4281 19.6256 30.3663 19.3181C30.3045 19.0106 30.1519 18.7281 29.9278 18.5063C29.7037 18.2846 29.4182 18.1336 29.1074 18.0725C28.7965 18.0113 28.4743 18.0427 28.1815 18.1627C27.8888 18.2827 27.6385 18.4859 27.4624 18.7466C27.2864 19.0073 27.1924 19.3138 27.1924 19.6274C27.1924 20.0479 27.3612 20.4511 27.6617 20.7484C27.9622 21.0458 28.3698 21.2128 28.7947 21.2128Z" fill="white"/>
</g>
<defs>
<clipPath id="clip0_124_1048">
<rect width="38" height="33" fill="white"/>
</clipPath>
</defs>
</svg>
