<svg width="47" height="31" viewBox="0 0 47 31" fill="none" xmlns="http://www.w3.org/2000/svg">
<g clip-path="url(#clip0_124_1037)">
<path d="M24.4497 14.8215C26.6027 14.3186 27.9362 12.1836 27.428 10.053C26.9199 7.92226 24.7625 6.60266 22.6094 7.10555C20.4563 7.60844 19.1229 9.74338 19.6311 11.8741C20.1392 14.0048 22.2966 15.3244 24.4497 14.8215Z" fill="white"/>
<path d="M41.4169 27.939V13.3994L33.2511 3.74204L23.5309 0L13.7799 3.74204L5.64495 13.43V27.9696H0V31.0306H47V27.9696L41.4169 27.939ZM14.8083 27.939V20.4396H21.9844V27.939H14.8083ZM25.0775 27.939V20.4396H32.2535V27.939H25.0775ZM11.7152 17.3787V27.939H8.73807V14.5396L15.6435 6.31326L23.5309 3.25228L31.4184 6.31326L38.3238 14.5396V27.939H35.3467V17.3787H11.7152Z" fill="white"/>
</g>
<defs>
<clipPath id="clip0_124_1037">
<rect width="47" height="31" fill="white"/>
</clipPath>
</defs>
</svg>
