<svg width="44" height="33" viewBox="0 0 44 33" fill="none" xmlns="http://www.w3.org/2000/svg">
<g clip-path="url(#clip0_124_1023)">
<path d="M44 18.15L38.9997 16.1341L35.7667 10.0435H28.7536V0H0V24.2191H8.14217C7.6252 24.4911 7.1635 24.8612 6.78164 25.3096H0.0420784V28.1791H5.65253C5.65253 28.2365 5.65253 28.2939 5.65253 28.3585C5.65253 29.5952 6.1328 30.7813 6.98769 31.6557C7.84257 32.5302 9.00204 33.0215 10.211 33.0215C11.42 33.0215 12.5795 32.5302 13.4344 31.6557C14.2893 30.7813 14.7695 29.5952 14.7695 28.3585C14.7732 28.2988 14.7732 28.2389 14.7695 28.1791H28.438C28.438 28.2365 28.438 28.2939 28.438 28.3585C28.438 29.5952 28.9183 30.7813 29.7731 31.6557C30.628 32.5302 31.7875 33.0215 32.9965 33.0215C34.2055 33.0215 35.365 32.5302 36.2198 31.6557C37.0747 30.7813 37.555 29.5952 37.555 28.3585C37.555 28.2939 37.555 28.2365 37.555 28.1791H44.0491L44 18.15ZM10.197 30.1304C9.85213 30.1333 9.51422 30.0312 9.22621 29.8371C8.9382 29.643 8.7131 29.3657 8.57952 29.0405C8.44593 28.7152 8.40989 28.3567 8.47598 28.0104C8.54207 27.6642 8.7073 27.3458 8.95067 27.0959C9.19404 26.8459 9.50457 26.6756 9.84279 26.6066C10.181 26.5376 10.5317 26.573 10.8502 26.7083C11.1687 26.8437 11.4406 27.0728 11.6315 27.3666C11.8224 27.6604 11.9236 28.0057 11.9222 28.3585C11.9204 28.8266 11.7383 29.2751 11.4153 29.6068C11.0924 29.9385 10.6546 30.1267 10.197 30.1304ZM13.6194 25.3096C13.2231 24.859 12.7472 24.489 12.2168 24.2191H25.9484V25.3096H13.6194ZM32.9614 30.1304C32.6168 30.1319 32.2796 30.0285 31.9925 29.8336C31.7054 29.6386 31.4814 29.3609 31.3489 29.0355C31.2164 28.7101 31.1814 28.3518 31.2483 28.006C31.3151 27.6602 31.4809 27.3425 31.7246 27.0933C31.9683 26.844 32.2788 26.6744 32.6168 26.606C32.9549 26.5376 33.3051 26.5734 33.6232 26.709C33.9413 26.8445 34.2129 27.0737 34.4035 27.3674C34.594 27.661 34.695 28.006 34.6937 28.3585C34.6918 28.8278 34.5087 29.2775 34.1843 29.6094C33.8598 29.9412 33.4203 30.1285 32.9614 30.1304ZM41.1807 25.3096H36.3908C35.9668 24.8071 35.442 24.404 34.852 24.1277C34.2621 23.8514 33.6208 23.7084 32.9719 23.7084C32.3231 23.7084 31.6818 23.8514 31.0919 24.1277C30.5019 24.404 29.9771 24.8071 29.5531 25.3096H28.7536V12.913H34.1536L37.05 18.3867L41.2579 20.0726L41.1807 25.3096Z" fill="white"/>
</g>
<defs>
<clipPath id="clip0_124_1023">
<rect width="44" height="33" fill="white"/>
</clipPath>
</defs>
</svg>
