<svg width="72" height="70" viewBox="0 0 72 70" fill="none" xmlns="http://www.w3.org/2000/svg">
<path d="M36 0L39.0104 7.15339L43.4848 0.764835L44.8997 8.37042L50.6425 3.02591L50.4 10.7513L57.1603 6.6844L55.271 14.1919L62.7532 11.5804L59.2997 18.542L67.1769 17.5L62.3101 23.6114L70.238 24.1844L64.1707 29.1785L71.8028 31.3415L64.8 35L71.8028 38.6585L64.1707 40.8215L70.238 45.8156L62.3101 46.3886L67.1769 52.5L59.2997 51.458L62.7532 58.4196L55.271 55.8081L57.1603 63.3156L50.4 59.2487L50.6425 66.9741L44.8997 61.6296L43.4848 69.2352L39.0104 62.8466L36 70L32.9896 62.8466L28.5152 69.2352L27.1003 61.6296L21.3575 66.9741L21.6 59.2487L14.8397 63.3156L16.729 55.8081L9.24679 58.4196L12.7003 51.458L4.82309 52.5L9.68989 46.3886L1.76197 45.8156L7.82935 40.8215L0.197212 38.6585L7.2 35L0.197212 31.3415L7.82935 29.1785L1.76197 24.1844L9.68989 23.6114L4.82309 17.5L12.7003 18.542L9.24679 11.5804L16.729 14.1919L14.8397 6.6844L21.6 10.7513L21.3575 3.02591L27.1003 8.37042L28.5152 0.764835L32.9896 7.15339L36 0Z" fill="white"/>
</svg>
