<svg width="46" height="44" viewBox="0 0 46 44" fill="none" xmlns="http://www.w3.org/2000/svg">
<path d="M23 0L25.8784 4.61669L30.1074 1.07676L31.3534 6.31828L36.5191 4.20163L36.0108 9.55492L41.6074 9.06872L39.3945 14.0098L44.8743 15.2016L41.1735 19.2468L46 22L41.1735 24.7532L44.8743 28.7984L39.3945 29.9902L41.6074 34.9313L36.0108 34.4451L36.5191 39.7984L31.3534 37.6817L30.1074 42.9232L25.8784 39.3833L23 44L20.1216 39.3833L15.8926 42.9232L14.6466 37.6817L9.48094 39.7984L9.98923 34.4451L4.39261 34.9313L6.60548 29.9902L1.1257 28.7984L4.82653 24.7532L0 22L4.82653 19.2468L1.1257 15.2016L6.60548 14.0098L4.39261 9.06872L9.98923 9.55492L9.48094 4.20163L14.6466 6.31828L15.8926 1.07676L20.1216 4.61669L23 0Z" fill="#0020D0"/>
</svg>
