<svg width="44" height="44" viewBox="0 0 44 44" fill="none" xmlns="http://www.w3.org/2000/svg">
<g clip-path="url(#clip0_124_757)">
<path d="M0 44H44V0H0V44Z" fill="#0020D0"/>
<path d="M4.02734 24.1045V33.28H5.54145V30.6152C5.84427 30.8574 6.17738 31.0391 6.51048 31.0391C7.02528 31.0391 7.41895 30.7666 7.75205 30.2518C8.11544 29.6764 8.29713 28.7982 8.29713 27.6778C8.29713 26.8905 8.14572 26.1637 7.87318 25.5883L7.81261 25.4975L7.75205 25.4066L7.72177 25.3158L7.6612 25.2552L7.60064 25.1644L7.57036 25.0735L7.50979 25.013L7.44923 24.9524L7.38866 24.8918L7.3281 24.8313L7.26754 24.7707L7.20697 24.7101L7.14641 24.6496L7.08584 24.589L7.02528 24.5285L6.96471 24.4679L6.87387 24.4376L6.8133 24.377L6.75274 24.3468L6.66189 24.3165L6.57105 24.2862L6.4802 24.2559L6.41964 24.2256H6.32879L6.23794 24.1953L6.1471 24.1651L6.05625 24.1348H5.9654L5.87456 24.1045H5.78371L5.69286 24.0742H5.60202H4.02734V24.1045ZM5.45061 25.4066H5.60202C5.99568 25.4066 6.26822 25.6186 6.4802 26.0426C6.69217 26.4665 6.78302 27.1024 6.78302 28.0109C6.78302 28.4954 6.72246 28.8891 6.57105 29.1313C6.44992 29.4039 6.26822 29.525 6.08653 29.525C5.90484 29.525 5.75343 29.4039 5.6323 29.1616C5.51117 28.9194 5.42032 28.5863 5.42032 28.1623V25.4066H5.45061Z" fill="white"/>
<path d="M39.6089 23.6807L39.4877 23.8018C39.4877 23.8018 36.3384 27.1026 36.0961 27.3448V24.1046H34.6123V33.3104H36.0961V29.5251C36.1264 29.4646 38.0342 27.4659 38.2462 27.2237C38.2462 27.5568 38.4581 33.2801 38.4581 33.2801H39.9722L39.6089 23.6807Z" fill="white"/>
<path d="M32.4018 23.8018L32.3715 23.8321L32.3412 23.8624L32.3109 23.8926L32.2807 23.9229L32.2504 23.9532L32.2201 23.9835L32.1898 24.0138L32.1595 24.0743L32.099 24.1349L32.0384 24.1955L31.9778 24.256L31.9173 24.3166L31.8567 24.3772L31.7356 24.4983L31.6145 24.6194L31.4933 24.7708L31.3419 24.9222L31.1905 25.0737L31.0391 25.2251L30.8877 25.3765L30.7363 25.5279L30.4335 25.861L30.282 26.0124L30.1306 26.1638L29.9792 26.3152L29.8278 26.4666L29.6764 26.618L29.5553 26.7392L29.4341 26.8603L29.3736 26.9209L29.313 26.9814L29.2525 27.042L29.1919 27.1026L29.1313 27.1631L29.101 27.2237L29.0708 27.254L29.0405 27.2843L29.0102 27.3145L29.0708 27.254V27.2843L29.0405 27.3145H29.0102V27.3448V24.1046H27.5264V33.3104H29.0102V29.5251C29.0405 29.4646 30.9483 27.4659 31.1602 27.2237C31.1602 27.5568 31.3722 33.2801 31.3722 33.2801H32.8863L32.5229 23.6504L32.4018 23.8018Z" fill="white"/>
<path d="M23.8014 31.0089L23.7106 30.8878L23.6198 30.7666L23.5289 30.6455L23.4683 30.5244L23.4078 30.4033L23.3472 30.2821L23.2866 30.1307L23.2261 29.9793L23.1958 29.8279L23.1655 29.6765L23.1352 29.5251L23.105 29.3737L23.0747 29.2222V29.0708V28.8891V28.7075C23.0747 27.7384 23.3169 26.9814 23.7712 26.406C24.286 25.8004 25.0127 25.4673 25.9818 25.4673H26.0423V23.8623H25.9818C24.4677 23.8623 23.3169 24.3165 22.5599 25.2553C21.8634 26.1032 21.5 27.2539 21.5 28.7075C21.5 30.1004 21.8937 31.2814 22.6507 32.1596C23.4683 33.0681 24.5888 33.5526 26.012 33.5526H26.0726V31.9476H26.012C25.043 31.9779 24.3162 31.6448 23.8014 31.0089Z" fill="white"/>
<path d="M11.9011 23.8926C11.1138 23.8926 10.4779 24.3468 10.0236 25.225C9.5694 26.1032 9.35742 27.2539 9.35742 28.6469C9.35742 30.1004 9.5694 31.2814 9.99335 32.1596C10.4173 33.0378 11.0835 33.492 11.9314 33.492C12.7793 33.492 13.4758 33.0075 13.9603 32.0991C14.4145 31.2512 14.6265 30.0701 14.6265 28.6469C14.6265 27.2539 14.3843 26.1032 13.93 25.225L13.8695 25.1342L13.8089 25.0433L13.7786 24.9525L13.7181 24.8919L13.6878 24.8313L13.6272 24.7708L13.5666 24.7102L13.5061 24.6496L13.4455 24.5891L13.385 24.5285L13.3244 24.4679L13.2638 24.4074L13.2033 24.3468L13.1427 24.2863L13.0821 24.2257H13.0518L12.9913 24.1954L12.9307 24.1651L12.8702 24.1348L12.8096 24.1046L12.7187 24.044L12.6582 24.0137L12.5976 23.9834L12.5068 23.9531L12.4462 23.9229H12.3554H12.2948H12.2342L12.1434 23.8926L12.0525 23.8623H11.9617H11.9011V23.8926ZM11.9011 25.3764C12.3251 25.3764 12.6279 25.6792 12.8096 26.2849C12.9913 26.83 13.0821 27.6173 13.0821 28.6469C13.0821 29.6462 12.9913 30.4638 12.7793 31.0997L12.749 31.1603L12.7187 31.2209L12.6885 31.2814L12.6582 31.342L12.6279 31.4026L12.5976 31.4631L12.5673 31.5237L12.5371 31.554L12.5068 31.6145L12.4765 31.6448L12.4462 31.7054L12.4159 31.7357L12.3856 31.766L12.3554 31.7962L12.3251 31.8265L12.2948 31.8568L12.2645 31.8871L12.2342 31.9174L12.2039 31.9476L12.1737 31.9779L12.1434 32.0082L12.1131 32.0385L12.0828 32.0688L12.0525 32.0991H12.0223L11.992 32.1293L11.9617 32.1596H11.9314L11.9011 32.1899H11.8708H11.8406H11.78C11.4166 32.1899 11.1441 31.8871 10.9321 31.2814C10.7201 30.6455 10.6293 29.8279 10.6293 28.8589C10.6293 27.8898 10.7201 27.0722 10.9321 26.4666C11.2652 25.6792 11.5377 25.3764 11.9011 25.3764Z" fill="white"/>
<path d="M18.1091 31.0089L18.0788 30.9483L18.0182 30.8878L17.9274 30.7666L17.8668 30.6455L17.8062 30.5244L17.7457 30.4032L17.6851 30.2821L17.6245 30.1307L17.564 30.0096L17.5337 29.8582L17.5034 29.7068L17.4731 29.5553L17.4428 29.4039L17.4126 29.2525V29.1011V28.9194V28.7377C17.4126 27.7687 17.6548 27.0116 18.1091 26.4363C18.6239 25.8306 19.3506 25.4975 20.3197 25.4975H20.4105V23.8926H20.3197C18.8358 23.8926 17.6548 24.3468 16.8978 25.2856C16.171 26.1335 15.8379 27.2842 15.8379 28.7377C15.8379 30.1307 16.2316 31.3117 16.9886 32.1899C17.8062 33.0984 18.9267 33.5829 20.3499 33.5829H20.4105V31.9779H20.2894C19.3506 31.9779 18.6239 31.6448 18.1091 31.0089Z" fill="white"/>
<path d="M4.05762 10.6289V19.865H5.75342V12.1733H7.84289V19.865H9.53869V10.6289H4.05762Z" fill="white"/>
<path d="M14.7782 10.3867C13.8697 10.3867 13.1429 10.841 12.6281 11.7494C12.1134 12.6276 11.8711 13.7783 11.8711 15.2016C11.8711 16.6551 12.1134 17.8664 12.5979 18.7446C13.0824 19.6228 13.8092 20.077 14.7782 20.077C15.7472 20.077 16.5043 19.6228 17.0493 18.684C17.5641 17.8059 17.8367 16.6551 17.8367 15.2016C17.8367 13.7783 17.5641 12.6276 17.0493 11.7494L16.9585 11.6586L16.8979 11.5677L16.8374 11.4769L16.7768 11.4163L16.7162 11.3255L16.6557 11.2649V11.2043L16.5951 11.1438L16.5345 11.0832L16.474 11.0226L16.4134 10.9621L16.3226 10.9015L16.262 10.841L16.2014 10.7804L16.1106 10.7198H16.05L15.9895 10.6593L15.9289 10.629L15.8381 10.5987H15.7775L15.6866 10.5684L15.5958 10.5381L15.5352 10.5078L15.4444 10.4776L15.3535 10.4473L15.2627 10.417L15.1719 10.3867L15.1416 10.417H15.0507H14.9599L14.869 10.3867H14.7782ZM14.7782 11.9614C15.2324 11.9614 15.5655 12.2642 15.7775 12.8396C15.9895 13.3847 16.0803 14.172 16.0803 15.2016C16.0803 16.1706 15.9592 16.9882 15.7472 17.6242C15.5352 18.2298 15.2021 18.5023 14.8085 18.5023H14.7479H14.7176H14.6873H14.6571L14.5965 18.4721H14.5662H14.5359L14.5056 18.4418L14.4754 18.4115L14.4451 18.3812L14.4148 18.3509L14.3845 18.3206L14.3542 18.2904L14.3239 18.2601L14.2937 18.2298L14.2331 18.2904V18.2601L14.2028 18.2298L14.1725 18.1692L14.1423 18.139L14.112 18.1087L14.0817 18.0481L14.0514 18.0178L14.0211 17.9875L13.9908 17.927L13.9606 17.8664L13.9303 17.8059L13.9 17.7453L13.8697 17.6847L13.8394 17.6242L13.8092 17.5636C13.5669 16.9277 13.476 16.11 13.476 15.1713C13.476 14.2023 13.5972 13.3847 13.8092 12.779C14.0514 12.2339 14.3542 11.9614 14.7782 11.9614Z" fill="white"/>
<path d="M27.0723 10.6289V12.1733H28.4955V19.865H30.1913V12.1733H31.6146V10.6289H27.0723Z" fill="white"/>
<path d="M23.3477 13.8388H22.409C22.0153 13.8388 21.7428 13.748 21.5611 13.5966C21.44 13.4754 21.3794 13.324 21.3794 13.112V10.6592H19.6836V13.2937C19.6836 13.8994 19.9259 14.4142 20.4104 14.8381C20.8646 15.2318 21.4702 15.4438 22.1062 15.4438H23.3477V19.8953H25.0435V10.6289H23.3477V13.8388Z" fill="white"/>
<path d="M33.8253 10.6289L33.5225 19.865H35.2183C35.2183 19.865 35.3697 15.5346 35.3697 15.3529H37.4894C37.5197 15.5346 37.9739 19.865 37.9739 19.865H39.6697L38.8824 13.112V13.0212V12.9304V12.8395L38.8521 12.7487V12.7184L38.8218 12.6578V12.567L38.7916 12.5064L38.7613 12.4156L38.731 12.355L38.7007 12.2944L38.6704 12.2339L38.6401 12.1733L38.6099 12.1127L38.5796 12.0522L38.5493 11.9916L38.519 11.931L38.4887 11.8705L38.4585 11.8099L38.4282 11.7493L38.3979 11.6888L38.3676 11.6282L38.307 11.5677L38.2768 11.5071L38.2465 11.4768L38.1859 11.4162L38.1556 11.386L38.0951 11.3254L38.0345 11.2648L37.9739 11.2345L37.9437 11.174L37.8831 11.1134C37.4591 10.7803 36.8838 10.6289 36.1267 10.6289H33.8253ZM35.4605 12.1733H36.0662C36.5204 12.1733 36.7929 12.3247 36.9746 12.5972C37.126 12.8092 37.2169 13.2332 37.2775 13.8388H35.4302V13.8085V13.7783V13.748V13.7177V13.6874V13.6571V13.6268V13.5663V13.5057V13.4451L35.4605 13.3846V13.324V13.2635V13.324V13.2635V13.2029V13.1423V12.9909V12.8698L35.4908 12.8092V12.7184V12.6578V12.5972V12.5367V12.4761V12.4156V12.355V12.2944L35.5211 12.2641V12.2339V12.2036V12.1733V12.143V12.1127V12.1733H35.4605Z" fill="white"/>
</g>
<defs>
<clipPath id="clip0_124_757">
<rect width="44" height="44" fill="white"/>
</clipPath>
</defs>
</svg>
