<svg width="79" height="23" viewBox="0 0 79 23" fill="none" xmlns="http://www.w3.org/2000/svg">
<path d="M62.7957 7.00798L65.6891 4.79297H56.0029V18.0611H65.6891V15.846H58.7703V12.4585H64.6825V10.2435H58.7703V7.00798H62.7957Z" fill="#21A038"/>
<path d="M48.6864 9.96125H45.3318V7.00798H50.699L53.5922 4.79297H42.5645V18.0611H48.3299C51.5586 18.0611 53.4245 16.5409 53.4245 13.8917C53.4245 11.351 51.7472 9.96125 48.6864 9.96125ZM48.2251 15.846H45.3318V12.1762H48.2251C49.9861 12.1762 50.8038 12.7842 50.8038 14.022C50.8038 15.2598 49.9232 15.846 48.2251 15.846Z" fill="#21A038"/>
<path d="M73.528 4.79297H68.2656V18.0611H71.0329V14.3043H73.5493C76.9031 14.3043 79.0004 12.4802 79.0004 9.54865C79.0004 6.61712 76.9031 4.79297 73.528 4.79297ZM73.4651 12.0893H71.0124V7.00798H73.4651C75.247 7.00798 76.2119 7.92001 76.2119 9.54865C76.2119 11.1773 75.247 12.0893 73.4651 12.0893Z" fill="#21A038"/>
<path d="M37.8249 15.1955C37.0911 15.6081 36.2735 15.8252 35.4349 15.8252C32.9401 15.8252 31.1371 13.9794 31.1371 11.4388C31.1371 8.89809 32.9401 7.05229 35.4349 7.05229C36.3364 7.03056 37.217 7.33457 37.9507 7.87748L39.9425 6.35734L39.8166 6.22711C38.6636 5.16302 37.1121 4.62012 35.3511 4.62012C33.4432 4.62012 31.7031 5.29334 30.4452 6.50938C29.1873 7.76889 28.4744 9.52777 28.5164 11.3519C28.4954 13.1977 29.1873 14.9783 30.4452 16.2812C31.766 17.5625 33.5271 18.2791 35.3301 18.2356C37.3218 18.2356 39.0619 17.519 40.2359 16.2161L38.4539 14.848L37.8249 15.1955Z" fill="#21A038"/>
<path d="M19.86 4.70654C20.3632 5.37968 20.7825 6.11802 21.1389 6.89974L11.453 14.3047L7.38574 11.6554V8.485L11.432 11.1125L19.86 4.70654Z" fill="#21A038"/>
<path d="M3.25468 11.4382C3.25468 11.2861 3.25468 11.1559 3.27568 11.0038L0.822755 10.8735C0.822755 11.0473 0.801758 11.2427 0.801758 11.4164C0.801758 14.4566 1.99681 17.2145 3.92554 19.2122L5.6657 17.4099C4.17718 15.8898 3.25468 13.7834 3.25468 11.4382Z" fill="url(#paint0_linear_230_6303)"/>
<path d="M11.4314 2.9689C11.5781 2.9689 11.7039 2.9689 11.8507 2.99063L11.9765 0.449874C11.8088 0.449874 11.62 0.428223 11.4523 0.428223C8.51716 0.428223 5.85459 1.666 3.92578 3.66377L5.66594 5.4661C7.13347 3.92431 9.1881 2.9689 11.4314 2.9689Z" fill="url(#paint1_linear_230_6303)"/>
<path d="M11.4299 19.9089C11.2831 19.9089 11.1573 19.9089 11.0106 19.8872L10.8848 22.4279C11.0525 22.4279 11.2412 22.4496 11.4089 22.4496C14.344 22.4496 17.0067 21.2118 18.9354 19.214L17.1953 17.4116C15.7278 18.9751 13.6942 19.9089 11.4299 19.9089Z" fill="url(#paint2_linear_230_6303)"/>
<path d="M16.043 4.44622L18.1186 2.86105C16.2946 1.34099 13.9674 0.407227 11.4307 0.407227V2.9479C13.1498 2.96963 14.7432 3.51254 16.043 4.44622Z" fill="url(#paint3_linear_230_6303)"/>
<path d="M22.0813 11.4394C22.0813 10.7663 22.0184 10.1148 21.9136 9.46338L19.6284 11.2223C19.6284 11.2874 19.6284 11.3743 19.6284 11.4394C19.6284 13.9367 18.5801 16.1734 16.9238 17.7152L18.5801 19.6044C20.7185 17.6066 22.0813 14.675 22.0813 11.4394Z" fill="#21A038"/>
<path d="M11.4308 19.9082C9.01981 19.9082 6.86036 18.8224 5.37184 17.1069L3.54785 18.8224C5.49766 21.0591 8.30697 22.4488 11.4308 22.4488V19.9082Z" fill="url(#paint4_linear_230_6303)"/>
<path d="M5.95917 5.16319L4.30291 3.27393C2.14354 5.29343 0.801758 8.20331 0.801758 11.4389H3.25468C3.25468 8.9633 4.30292 6.70498 5.95917 5.16319Z" fill="url(#paint5_linear_230_6303)"/>
<defs>
<linearGradient id="paint0_linear_230_6303" x1="3.67185" y1="18.9032" x2="0.999232" y2="11.4686" gradientUnits="userSpaceOnUse">
<stop offset="0.1444" stop-color="#F2E913"/>
<stop offset="0.3037" stop-color="#E7E518"/>
<stop offset="0.5823" stop-color="#CADB26"/>
<stop offset="0.891" stop-color="#A3CD39"/>
</linearGradient>
<linearGradient id="paint1_linear_230_6303" x1="4.62506" y1="3.36923" x2="11.0439" y2="1.01509" gradientUnits="userSpaceOnUse">
<stop offset="0.0592" stop-color="#0FA8E0"/>
<stop offset="0.5385" stop-color="#0099F9"/>
<stop offset="0.9234" stop-color="#0291EB"/>
</linearGradient>
<linearGradient id="paint2_linear_230_6303" x1="10.7407" y1="20.2823" x2="18.3487" y2="18.6275" gradientUnits="userSpaceOnUse">
<stop offset="0.1226" stop-color="#A3CD39"/>
<stop offset="0.2846" stop-color="#86C339"/>
<stop offset="0.8693" stop-color="#21A038"/>
</linearGradient>
<linearGradient id="paint3_linear_230_6303" x1="10.9266" y1="2.03284" x2="17.2709" y2="3.91664" gradientUnits="userSpaceOnUse">
<stop offset="0.0566" stop-color="#0291EB"/>
<stop offset="0.79" stop-color="#0C8ACB"/>
</linearGradient>
<linearGradient id="paint4_linear_230_6303" x1="4.17156" y1="19.2351" x2="11.0013" y2="21.6909" gradientUnits="userSpaceOnUse">
<stop offset="0.1324" stop-color="#F2E913"/>
<stop offset="0.2977" stop-color="#EBE716"/>
<stop offset="0.5306" stop-color="#D9E01F"/>
<stop offset="0.8023" stop-color="#BBD62D"/>
<stop offset="0.9829" stop-color="#A3CD39"/>
</linearGradient>
<linearGradient id="paint5_linear_230_6303" x1="2.66823" y1="11.7457" x2="5.55344" y2="4.52265" gradientUnits="userSpaceOnUse">
<stop offset="0.0698" stop-color="#A3CD39"/>
<stop offset="0.2599" stop-color="#81C55F"/>
<stop offset="0.9216" stop-color="#0FA8E0"/>
</linearGradient>
</defs>
</svg>
