<svg width="55" height="41" viewBox="0 0 55 41" fill="none" xmlns="http://www.w3.org/2000/svg">
<g clip-path="url(#clip0_124_912)">
<path d="M55 22.55L48.7496 20.0454L44.7083 12.4783H35.942V0H0V30.0904H10.1777C9.5315 30.4284 8.95437 30.8881 8.47705 31.4452H0.052598V35.0104H7.06567C7.06567 35.0817 7.06567 35.153 7.06567 35.2333C7.06567 36.7698 7.666 38.2434 8.73461 39.3299C9.80321 40.4164 11.2526 41.0267 12.7638 41.0267C14.275 41.0267 15.7244 40.4164 16.793 39.3299C17.8616 38.2434 18.4619 36.7698 18.4619 35.2333C18.4665 35.1591 18.4665 35.0846 18.4619 35.0104H35.5475C35.5475 35.0817 35.5475 35.153 35.5475 35.2333C35.5475 36.7698 36.1478 38.2434 37.2164 39.3299C38.285 40.4164 39.7344 41.0267 41.2456 41.0267C42.7569 41.0267 44.2062 40.4164 45.2748 39.3299C46.3434 38.2434 46.9437 36.7698 46.9437 35.2333C46.9437 35.153 46.9437 35.0817 46.9437 35.0104H55.0614L55 22.55ZM12.7463 37.4348C12.3152 37.4383 11.8928 37.3115 11.5328 37.0703C11.1728 36.8292 10.8914 36.4847 10.7244 36.0806C10.5574 35.6765 10.5124 35.231 10.595 34.8008C10.6776 34.3707 10.8841 33.9751 11.1883 33.6646C11.4926 33.354 11.8807 33.1424 12.3035 33.0567C12.7263 32.9709 13.1646 33.0149 13.5627 33.1831C13.9608 33.3512 14.3008 33.6359 14.5394 34.001C14.778 34.366 14.9045 34.7949 14.9028 35.2333C14.9005 35.8149 14.6728 36.3722 14.2691 36.7843C13.8655 37.1964 13.3183 37.4301 12.7463 37.4348ZM17.0242 31.4452C16.5289 30.8854 15.9341 30.4258 15.271 30.0904H32.4354V31.4452H17.0242ZM41.2018 37.4348C40.7711 37.4365 40.3495 37.3082 39.9907 37.066C39.6318 36.8238 39.3518 36.4786 39.1862 36.0744C39.0205 35.6701 38.9767 35.2249 39.0603 34.7953C39.1439 34.3657 39.3512 33.971 39.6558 33.6614C39.9603 33.3517 40.3485 33.141 40.771 33.056C41.1936 32.971 41.6314 33.0155 42.029 33.1839C42.4267 33.3523 42.7661 33.637 43.0043 34.0019C43.2425 34.3667 43.3688 34.7953 43.3671 35.2333C43.3648 35.8164 43.1359 36.375 42.7303 36.7874C42.3248 37.1997 41.7753 37.4324 41.2018 37.4348ZM51.4759 31.4452H45.4885C44.9585 30.821 44.3025 30.3202 43.565 29.9769C42.8276 29.6336 42.026 29.4559 41.2149 29.4559C40.4039 29.4559 39.6023 29.6336 38.8648 29.9769C38.1274 30.3202 37.4713 30.821 36.9413 31.4452H35.942V16.0435H42.6921L46.3126 22.8441L51.5724 24.9387L51.4759 31.4452Z" fill="#0020D0"/>
</g>
<defs>
<clipPath id="clip0_124_912">
<rect width="55" height="41" fill="white"/>
</clipPath>
</defs>
</svg>
