<svg width="102" height="41" viewBox="0 0 102 41" fill="none" xmlns="http://www.w3.org/2000/svg">
<path d="M94.4482 2.29883H5.35354L1.05176 15.4227V32.4741L3.91961 36.4016H18.5457C19.6928 38.8923 22.1783 40.6166 25.0461 40.6166C27.914 40.6166 30.3995 38.8923 31.5466 36.4016H72.1745C73.3217 38.8923 75.8072 40.6166 78.675 40.6166C81.5429 40.6166 84.0283 38.8923 85.1755 36.4016H99.3236L100.949 28.8339V21.7451L94.4482 2.29883ZM25.0461 36.5932C23.3254 36.5932 21.8915 35.1563 21.8915 33.432C21.8915 31.7077 23.3254 30.2708 25.0461 30.2708C26.7668 30.2708 28.2008 31.7077 28.2008 33.432C28.2008 35.1563 26.7668 36.5932 25.0461 36.5932ZM78.675 36.5932C76.9543 36.5932 75.5204 35.1563 75.5204 33.432C75.5204 31.7077 76.9543 30.2708 78.675 30.2708C80.3957 30.2708 81.8296 31.7077 81.8296 33.432C81.8296 35.1563 80.3957 36.5932 78.675 36.5932ZM96.0733 32.3783H85.749C85.1755 28.9297 82.3076 26.3432 78.7706 26.3432C75.2336 26.3432 72.2701 28.9297 71.7922 32.3783H32.1202C31.5466 28.9297 28.6788 26.3432 25.1417 26.3432C21.6047 26.3432 18.6413 28.9297 18.1633 32.3783H5.92711L5.06675 31.1329V16.0932H6.78747L19.406 20.3082H19.6928L19.9796 20.404H82.9768L96.3601 22.6072H97.1249V28.1633L96.0733 32.3783Z" fill="#0020D0"/>
<path d="M91.102 5.17285H8.89021L5.06641 16.0934L8.79462 17.4345L11.7581 9.19622H78.9614V21.8411H82.9764V9.19622H88.2342L93.1095 23.8528L96.9333 22.5116L91.102 5.17285Z" fill="white"/>
</svg>
