<svg width="33" height="33" viewBox="0 0 33 33" fill="none" xmlns="http://www.w3.org/2000/svg">
<path fill-rule="evenodd" clip-rule="evenodd" d="M1.1892 0.0303513L5.19045 1.03066C5.59287 1.1284 5.89182 1.53082 5.98955 1.82976L6.48971 5.12965L31.1871 8.0271C31.6872 8.12483 32.1874 8.72847 31.9862 9.32636L27.9849 25.3256C27.8872 25.728 27.4848 26.027 26.9846 26.027H8.58806C7.28881 26.027 7.28881 24.0264 8.58806 24.0264H26.2832L26.7834 22.0257H7.98443C7.48427 22.0257 7.08185 21.6233 6.98411 21.1231L4.08666 2.83008L0.689043 2.03098C-0.512482 1.73203 -0.0123258 -0.268593 1.1892 0.0303513ZM27.2836 20.0251L29.7843 9.93L26.6857 9.52757L25.1852 20.0251H27.2836ZM23.1846 20.0251L24.685 9.32636L21.5864 8.92393L21.0862 20.0194L23.1846 20.0251ZM16.9872 20.0251H19.0856L19.5858 8.62499L16.4871 8.32605L16.9872 20.0251ZM12.8883 20.0251H14.9866L14.3887 8.0271L11.2901 7.72816L12.8883 20.0251ZM8.88701 20.0251H10.8876L9.28943 7.42921L7.19107 7.228L8.88701 20.0251Z" fill="#2C2C2C"/>
<path fill-rule="evenodd" clip-rule="evenodd" d="M11.089 27.924C12.2906 27.924 13.1874 28.8265 13.1874 30.0223C13.1874 31.2238 12.2848 32.2241 11.089 32.2241C9.89327 32.2241 8.88721 31.2238 8.88721 30.0223C8.88721 28.8208 9.88752 27.924 11.089 27.924Z" fill="#2C2C2C"/>
<path fill-rule="evenodd" clip-rule="evenodd" d="M22.9831 27.924C24.1846 27.924 25.185 28.8265 25.185 30.0223C25.185 31.2238 24.1846 32.2241 22.9831 32.2241C21.7816 32.2241 20.8848 31.2238 20.8848 30.0223C20.8848 28.8208 21.7873 27.924 22.9831 27.924Z" fill="#2C2C2C"/>
</svg>
